<svg data-v-423bf9ae="" xmlns="http://www.w3.org/2000/svg" viewBox="0 0 292.31460250355576 60" class="font"><!----><!----><!----><g data-v-423bf9ae="" id="88a01903-663b-4795-be8f-551b6db40e40" fill="black" transform="matrix(4.494381894047144,0,0,4.494381894047144,-4.359553967933749,-16.1797739131149)"><path d="M4.62 13.96C5.71 13.96 6.57 13.57 7.24 13.12L6.83 12.35C6.20 12.77 5.56 13.02 4.76 13.02C3.28 13.02 2.21 12.03 2.16 10.49L7.48 10.49C7.50 10.30 7.52 10.05 7.52 9.81C7.52 7.80 6.37 6.47 4.42 6.47C2.66 6.47 0.97 7.90 0.97 10.22C0.97 12.56 2.60 13.96 4.62 13.96ZM2.14 9.65C2.32 8.22 3.33 7.38 4.44 7.38C5.70 7.38 6.45 8.19 6.45 9.65ZM14.08 13.96C14.83 13.96 15.30 13.76 15.92 13.52L15.62 12.66C15.12 12.89 14.73 13.01 14.34 13.01C13.52 13.01 13.01 12.54 13.01 11.49L13.01 3.60L9.53 3.60L9.53 4.54L11.86 4.54L11.86 11.41C11.86 13.09 12.64 13.96 14.08 13.96ZM21.42 13.96C22.51 13.96 23.37 13.57 24.04 13.12L23.63 12.35C23.00 12.77 22.36 13.02 21.56 13.02C20.08 13.02 19.01 12.03 18.96 10.49L24.28 10.49C24.30 10.30 24.32 10.05 24.32 9.81C24.32 7.80 23.17 6.47 21.22 6.47C19.46 6.47 17.77 7.90 17.77 10.22C17.77 12.56 19.40 13.96 21.42 13.96ZM18.94 9.65C19.12 8.22 20.13 7.38 21.24 7.38C22.50 7.38 23.25 8.19 23.25 9.65ZM29.12 16.95C31.14 16.95 32.30 15.85 32.30 13.78L32.30 6.64L31.37 6.64L31.28 7.43L31.23 7.43C30.63 6.83 29.95 6.47 29.15 6.47C27.50 6.47 26.04 7.87 26.04 10.11C26.04 12.36 27.23 13.71 28.98 13.71C29.82 13.71 30.66 13.23 31.19 12.64L31.18 13.78C31.16 15.44 30.42 16.03 29.12 16.03C28.43 16.03 27.65 15.83 26.95 14.94L26.39 15.64C27.27 16.69 28.24 16.95 29.12 16.95ZM29.23 12.75C27.99 12.75 27.22 11.72 27.22 10.09C27.22 8.54 28.20 7.43 29.34 7.43C29.95 7.43 30.53 7.67 31.15 8.29L31.15 11.66C30.53 12.38 29.89 12.75 29.23 12.75ZM37.04 13.96C38.01 13.96 38.98 13.41 39.73 12.80L39.77 12.80L39.87 13.78L40.81 13.78L40.81 9.38C40.81 7.63 39.91 6.47 38.05 6.47C36.86 6.47 35.85 7.03 35.31 7.49L35.76 8.29C36.25 7.87 36.97 7.42 37.86 7.42C39.17 7.42 39.63 8.27 39.66 9.25C36.15 9.56 34.73 10.33 34.73 11.94C34.73 13.22 35.77 13.96 37.04 13.96ZM37.35 13.03C36.57 13.03 35.85 12.68 35.85 11.86C35.85 10.89 36.75 10.28 39.66 10.02L39.66 11.94C38.89 12.64 38.12 13.03 37.35 13.03ZM43.30 13.78L44.45 13.78L44.45 8.79C45.25 7.90 45.79 7.46 46.61 7.46C47.73 7.46 48.17 8.12 48.17 9.49L48.17 13.78L49.32 13.78L49.32 9.34C49.32 7.46 48.58 6.47 46.97 6.47C45.91 6.47 45.12 7.07 44.41 7.88L44.35 7.88L44.25 6.64L43.30 6.64ZM51.39 13.78L57.85 13.78L57.85 12.84L53.03 12.84L57.71 7.25L57.71 6.64L51.91 6.64L51.91 7.57L56.06 7.57L51.39 13.16ZM62.24 13.96C63.21 13.96 64.18 13.41 64.93 12.80L64.97 12.80L65.07 13.78L66.01 13.78L66.01 9.38C66.01 7.63 65.11 6.47 63.25 6.47C62.06 6.47 61.05 7.03 60.51 7.49L60.96 8.29C61.45 7.87 62.17 7.42 63.06 7.42C64.37 7.42 64.83 8.27 64.86 9.25C61.35 9.56 59.93 10.33 59.93 11.94C59.93 13.22 60.97 13.96 62.24 13.96ZM62.55 13.03C61.77 13.03 61.05 12.68 61.05 11.86C61.05 10.89 61.95 10.28 64.86 10.02L64.86 11.94C64.09 12.64 63.32 13.03 62.55 13.03Z"></path></g><!----><!----></svg>